<svg width="537" height="453" viewBox="0 0 537 453" fill="none" xmlns="http://www.w3.org/2000/svg">
<path d="M461.82 55.2343H107.4V451.08H461.82V55.2343Z" fill="#BBDAF1"/>
<path d="M109.679 55.8421H107.991V452.095H109.679V55.8421Z" fill="#2B69C8"/>
<path d="M200.304 55.8421H198.616V452.095H200.304V55.8421Z" fill="#2B69C8"/>
<path d="M281.88 55.8421H280.191V452.095H281.88V55.8421Z" fill="#2B69C8"/>
<path d="M363.022 55.8421H361.333V452.095H363.022V55.8421Z" fill="#2B69C8"/>
<path d="M61.6113 280.735H27.405C25.4565 280.735 23.8545 279.124 23.8545 277.163V221.757C23.8545 219.797 25.4565 218.185 27.405 218.185H61.6113C63.5597 218.185 65.1618 219.797 65.1618 221.757V277.12C65.2051 279.124 63.603 280.735 61.6113 280.735Z" fill="#D4FFDB"/>
<path d="M50.9597 259.566C50.9597 260.873 50.57 262.092 49.9205 263.094C48.7947 265.054 46.7164 266.317 44.2483 266.317C40.5246 266.317 37.537 263.268 37.537 259.566C37.537 256.865 39.0958 254.513 41.4339 253.468C42.2999 253.032 43.2525 252.814 44.2916 252.814C47.9721 252.771 50.9597 255.82 50.9597 259.566Z" fill="#2B69C8"/>
<path d="M50.9597 259.566C50.9597 260.873 50.5701 262.092 49.9206 263.094C49.0546 263.53 48.102 263.747 47.1061 263.747C43.3824 263.747 40.3948 260.742 40.3948 257.039C40.3948 255.733 40.7845 254.513 41.434 253.468C42.2999 253.032 43.2525 252.814 44.2917 252.814C47.9721 252.771 50.9597 255.82 50.9597 259.566Z" fill="#2A93EE"/>
<path d="M50.9597 236.828C50.9597 238.135 50.57 239.355 49.9205 240.356C48.7947 242.317 46.7164 243.58 44.2483 243.58C40.5246 243.58 37.537 240.531 37.537 236.828C37.537 234.128 39.0958 231.775 41.4339 230.73C42.2999 230.294 43.2525 230.077 44.2916 230.077C47.9721 230.077 50.9597 233.126 50.9597 236.828Z" fill="#2B69C8"/>
<path d="M50.9597 236.828C50.9597 238.135 50.5701 239.355 49.9206 240.356C49.0546 240.792 48.102 241.01 47.1061 241.01C43.3824 241.01 40.3948 238.004 40.3948 234.302C40.3948 232.952 40.7845 231.775 41.434 230.73C42.2999 230.294 43.2525 230.077 44.2917 230.077C47.9721 230.077 50.9597 233.126 50.9597 236.828Z" fill="#2A93EE"/>
<path d="M171.482 158.205V160.426C171.482 160.426 172.088 167.439 163.515 168.441C154.942 169.487 148.49 165.697 148.707 160.339C149.486 156.158 150.309 153.283 150.395 149.842C150.395 148.578 150.309 147.185 150.092 145.66L166.676 145.312L171.569 146.096L171.482 158.205Z" fill="#FFB27D"/>
<path d="M171.525 146.096L171.482 158.205C155.288 157.726 150.309 147.185 150.092 145.66L166.676 145.312L171.525 146.096Z" fill="#E8945B"/>
<path d="M172.521 151.976C172.521 151.976 151.261 156.288 148.793 142.959C146.325 129.63 141.909 121.18 155.375 117.87C168.841 114.559 172.435 119.133 174.34 123.402C176.245 127.627 177.977 150.495 172.521 151.976Z" fill="#FFB27D"/>
<path d="M171.265 161.515C171.265 161.515 176.331 188.783 181.83 217.27C187.849 248.241 202.441 277.817 203.696 278.949C205.472 280.561 212.529 278.47 209.672 276.728C205.818 274.376 206.035 246.934 204.649 230.774C204.303 226.81 203.913 223.586 203.48 221.583C201.228 211.39 200.536 175.236 193.781 169.574C186.983 163.911 171.265 161.515 171.265 161.515Z" fill="#FFB27D"/>
<path d="M171.265 161.515C171.265 161.515 174.166 177.24 178.02 197.233C179.232 203.593 180.531 210.388 181.874 217.227C187.286 227.899 191.919 235.129 193.348 233.779C196.292 230.991 201.402 230.643 204.649 230.774C204.303 226.81 203.913 223.586 203.48 221.583C203.307 220.755 203.133 219.797 202.96 218.708C201.055 205.858 200.016 174.801 193.781 169.574C186.983 163.911 171.265 161.515 171.265 161.515Z" fill="#33393F"/>
<path d="M177.977 197.233C179.189 203.593 180.488 210.388 181.83 217.227C187.243 227.899 191.876 235.129 193.305 233.779C196.249 230.991 201.358 230.643 204.606 230.774C204.259 226.81 203.87 223.586 203.437 221.583C203.263 220.755 203.09 219.797 202.917 218.708L186.68 179.331L177.977 197.233Z" fill="#23282D"/>
<path d="M156.847 450.004C156.847 450.004 156.067 443.775 154.206 440.073C152.387 436.37 140.653 438.722 140.653 438.722C140.653 438.722 138.315 440.726 137.795 450.135L156.847 450.004Z" fill="#23282D"/>
<path d="M196.725 449.96C193.997 448.262 195.556 435.673 195.556 435.673C195.556 435.673 208.373 425.35 210.105 433.278C211.88 441.162 222.272 444.733 228.204 445.692C232.274 446.345 233.573 448.654 233.962 450.004H196.725V449.96Z" fill="#23282D"/>
<path d="M170.183 358.357C170.703 361.232 171.049 363.627 171.136 365.326C172.348 388.673 190.707 442.12 193.954 443.34C199.02 445.256 207.03 441.162 211.23 439.811C212.962 439.245 214.132 437.503 213.742 435.717C204.649 393.683 201.315 333.136 200.103 297.288C199.496 279.211 196.422 266.753 196.422 266.753C196.422 266.753 151.651 254.731 151.391 269.933C151.131 283.392 166.199 336.185 170.183 358.357Z" fill="#33393F"/>
<path d="M170.183 358.357L200.103 297.288C199.496 279.211 196.422 266.753 196.422 266.753C196.422 266.753 151.651 254.731 151.391 269.933C151.131 283.392 166.199 336.185 170.183 358.357Z" fill="#23282D"/>
<path d="M180.142 270.02L156.457 442.599C156.457 442.599 146.065 445.125 137.968 443.122C137.968 443.122 131.041 351.344 131.604 329.129C132.166 306.958 126.624 269.758 132.859 265.664C139.138 261.526 180.142 270.02 180.142 270.02Z" fill="#33393F"/>
<path d="M129.525 265.62C129.439 267.624 131.041 269.279 132.989 269.323L170.313 269.889L197.721 270.325C199.02 270.368 194.95 260.001 194.863 192.703C194.863 177.676 171.742 161.515 171.309 161.515C171.309 163.693 167.931 167.657 162.692 168.006C156.5 168.398 148.88 165.305 148.88 161.733C148.88 161.69 148.144 162.474 147.018 164.172C143.944 168.702 137.709 179.766 133.725 199.019C130.564 214.221 131.777 234.52 129.525 260.742C129.309 262.615 129.568 264.314 129.525 265.62Z" fill="white"/>
<path d="M130.867 269.541C130.867 269.541 135.847 271.762 145.113 273.722C151.997 275.16 161.307 276.423 172.694 276.51C190.837 276.641 197.678 270.325 197.678 270.325C198.977 270.368 194.907 260.001 194.82 192.703C194.82 177.676 171.698 161.515 171.265 161.515C171.265 161.515 171.872 181.509 165.853 187.389C165.853 187.389 157.41 180.812 146.455 162.169C143.381 166.699 137.665 179.723 133.682 198.976C132.859 202.896 132.34 207.165 131.993 211.738C130.954 225.024 131.17 241.228 129.482 260.698C129.309 262.571 129.568 264.27 129.525 265.62C129.439 267.624 128.876 269.497 130.867 269.541Z" fill="#33393F"/>
<path d="M130.867 269.541C130.867 269.541 135.847 271.762 145.113 273.722C148.014 269.236 151.694 261.177 152.214 248.415C153.08 226.897 132.729 199.15 132.729 199.15L131.95 211.738C130.911 225.024 131.127 241.228 129.439 260.698C129.265 262.571 129.525 264.27 129.482 265.62C129.439 267.624 128.876 269.497 130.867 269.541Z" fill="#23282D"/>
<path d="M130.564 237.09L157.28 252.596C159.488 253.86 162.303 253.119 163.558 250.898L186.42 211.085C187.676 208.864 186.94 206.032 184.731 204.769L158.016 189.262C155.808 187.999 152.993 188.739 151.738 190.961L128.919 230.817C127.62 232.995 128.399 235.826 130.564 237.09Z" fill="#2A93EE"/>
<path d="M168.191 234.04C154.985 237.961 143.597 239.877 134.851 240.792C132.599 241.01 130.564 241.184 128.659 241.315C130.608 236.48 133.379 229.597 135.414 224.762C135.89 224.85 136.41 224.937 136.929 224.98C148.49 226.679 164.294 227.376 164.294 227.376L168.191 234.04Z" fill="#FFB27D"/>
<path d="M164.208 227.42C164.208 227.42 169.577 222.367 171.612 222.367C173.69 222.367 180.055 222.759 180.791 224.37C182.437 228.247 178.28 231.775 176.591 232.429C174.903 233.082 170.659 233.953 168.841 234.128C166.979 234.302 162.476 233.3 164.208 227.42Z" fill="#FFB27D"/>
<path d="M115.626 241.358C115.626 241.358 122.727 242.055 134.851 240.792C134.201 237.482 133.552 230.991 136.973 224.98C134.072 224.545 131.474 224.066 129.439 223.499C126.927 222.802 139.397 190.961 145.719 172.231C146.239 166.176 146.498 162.125 146.498 162.125L146.065 162.212C141.173 163.171 131.171 165.479 126.927 168.703C121.168 173.102 106.836 222.323 115.626 241.358Z" fill="#33393F"/>
<path d="M165.853 187.389C165.853 187.389 148.966 179.897 148.707 179.331C148.447 178.721 149.529 174.191 150.698 172.841C150.698 172.841 142.602 173.581 142.082 172.579C141.562 171.577 141.432 163.171 141.432 163.171C141.432 163.171 144.723 159.599 148.88 159.25C148.88 159.25 152.43 168.572 153.773 171.316C157.41 178.547 165.853 187.389 165.853 187.389Z" fill="#23282D"/>
<path d="M169.837 172.579C169.837 172.579 168.754 181.335 165.81 187.389C165.81 187.389 174.643 181.204 175.379 179.2C176.115 177.196 173.257 173.276 173.257 173.276C173.257 173.276 178.54 173.146 178.626 171.403C178.756 169.617 176.981 162.691 176.981 162.691C176.981 162.691 172.738 159.163 171.482 159.294L169.837 172.579Z" fill="#23282D"/>
<path d="M178.453 113.47C178.453 113.47 172.521 112.991 165.55 109.942C159.878 107.459 152.733 110.203 150.395 111.423C150.439 111.031 150.612 110.552 150.958 110.029C150.958 110.029 149.919 110.77 149.746 111.815C149.659 111.902 149.573 111.946 149.616 111.989C149.616 111.989 148.447 111.771 147.667 112.12C147.667 112.12 148.187 112.033 148.404 112.381C148.404 112.425 148.447 112.468 148.49 112.468C139.657 116.781 138.834 130.85 141.692 134.073C145.113 137.994 149.226 146.793 149.226 146.793C149.226 146.793 150.742 144.702 150.092 141.261C149.486 137.819 152.43 137.819 156.154 136.251C159.878 134.683 156.76 130.284 160.051 127.627C163.298 124.97 175.292 126.538 175.162 124.49C179.622 122.879 178.453 113.906 178.453 113.47Z" fill="#4A2009"/>
<path d="M155.418 220.276C155.418 219.056 156.414 218.054 157.626 218.054C158.839 218.054 159.834 219.056 159.834 220.276C159.834 221.496 158.839 222.497 157.626 222.497C156.414 222.497 155.418 221.496 155.418 220.276Z" fill="#2B69C8"/>
<path d="M209.672 276.728C209.672 276.728 217.552 279.646 217.812 285.527C217.942 288.576 217.812 292.191 214.175 291.799C211.447 291.494 212.659 288.445 210.364 286.921C208.07 285.396 203.393 279.908 203.22 277.294C203.047 274.637 209.672 276.728 209.672 276.728Z" fill="#FFB27D"/>
<path d="M353.713 209.865C353.41 209.081 349.556 197.582 346.612 196.014C343.667 194.446 338.255 192.747 336.999 193.357C335.744 193.966 333.449 202.678 336.999 207.208C340.55 211.738 349.686 216.094 349.686 216.094L353.713 209.865Z" fill="#FFB27D"/>
<path d="M398.181 244.059C377.744 244.669 348.733 218.011 348.733 218.011C348.733 218.011 349.686 214.308 351.072 212.435C351.981 211.172 353.713 209.822 353.713 209.822C361.16 214.787 387.443 219.492 387.443 219.492C396.795 220.624 415.241 243.536 398.181 244.059Z" fill="#EF7F18"/>
<path d="M354.795 204.856L345.702 207.905C345.356 208.036 344.966 207.818 344.88 207.47L337.432 184.95C337.302 184.601 337.519 184.209 337.865 184.122L346.958 181.073C347.305 180.942 347.694 181.16 347.781 181.509L355.228 204.029C355.315 204.377 355.142 204.725 354.795 204.856Z" fill="#EF7F18"/>
<path d="M351.721 205.902L343.581 208.646C342.975 208.864 342.325 208.515 342.109 207.905L334.964 186.387C334.748 185.777 335.094 185.124 335.7 184.906L343.841 182.162C344.447 181.944 345.096 182.293 345.313 182.903L352.457 204.421C352.63 205.03 352.327 205.684 351.721 205.902Z" fill="#FCC846"/>
<path d="M336.307 194.489C336.307 194.489 338.645 189.654 342.888 191.614C347.131 193.574 345.269 200.892 342.801 203.462C340.333 206.032 339.641 207.208 339.641 207.208L336.307 194.489Z" fill="#FFB27D"/>
<path d="M415.89 437.808C415.89 437.808 417.016 448.567 414.591 449.743C412.167 450.919 383.503 449.873 383.503 449.873C383.503 449.873 383.589 446.258 388.525 445.561C393.461 444.864 402.208 442.076 403.81 435.543C405.412 428.965 415.89 437.808 415.89 437.808Z" fill="#23282D"/>
<path d="M444.468 437.808C444.468 437.808 445.593 448.828 443.212 450.004C442.216 450.483 410.911 450.178 410.911 450.178C410.911 450.178 412.166 446.214 417.103 445.517C422.039 444.82 430.785 442.033 432.387 435.499C433.946 428.965 444.468 437.808 444.468 437.808Z" fill="#23282D"/>
<path d="M429.616 272.546C429.616 272.546 429.573 273.722 429.529 275.857C429.226 289.578 428.057 342.545 426.975 372.121C426.931 373.21 426.888 374.256 426.845 375.257C426.845 375.78 426.802 376.346 426.802 376.869C426.152 391.156 424.204 405.139 422.255 416.333C419.787 430.62 417.232 440.334 417.232 440.334C407.75 442.251 401.645 438.635 401.645 438.635C401.645 438.635 399.09 416.507 398.138 403.091C397.834 398.736 396.276 383.926 394.327 365.849C392.812 351.91 391.08 336.011 389.434 321.55C389.348 320.766 389.261 320.025 389.175 319.241C386.577 295.894 384.412 276.859 384.412 276.859L401.125 275.247L429.616 272.546Z" fill="#33393F"/>
<path d="M422.255 416.333L394.284 365.849C392.769 351.91 391.037 336.011 389.391 321.55C389.305 320.766 389.218 320.025 389.131 319.241C386.533 295.894 384.369 276.859 384.369 276.859L401.082 275.247L429.443 275.813L422.255 416.333Z" fill="#23282D"/>
<path d="M387.529 277.033C387.529 277.033 403.16 354.785 415.89 392.332C428.62 429.88 428.793 440.29 428.793 440.29C428.793 440.29 440.484 442.86 445.637 439.898C445.637 439.898 448.581 368.767 440.874 349.863C435.764 337.361 431.868 310.747 433.21 301.208C434.552 291.625 435.764 272.416 435.764 272.416L387.529 277.033Z" fill="#33393F"/>
<path d="M420.913 157.072L407.967 169.574C404.416 166.612 401.732 163.127 399.697 159.86C397.705 156.637 396.319 153.631 395.367 151.497C394.631 149.929 402.554 144.876 407.014 141.696C408.4 140.651 409.482 139.867 409.828 139.344C409.828 139.344 410.175 140.259 410.781 141.609C411.777 143.787 413.336 147.01 414.851 149.101C418.705 154.459 420.913 157.072 420.913 157.072Z" fill="#FFB27D"/>
<path d="M431.608 281.171C427.927 283.784 422.082 284.743 415.674 284.655C408.183 284.525 399.87 282.957 393.245 280.997C389.694 279.908 386.62 278.732 384.369 277.555C374.453 272.372 375.882 265.446 376.098 239.572C376.358 213.176 392.509 179.026 395.41 173.276C400.606 163.083 423.814 166.873 423.814 166.873C428.923 169.312 430.742 177.545 431.218 188.217C431.781 200.108 430.699 215.092 430.699 228.77C430.699 240.095 432.82 250.07 434.379 258.346C436.414 269.149 437.453 277.033 431.608 281.171Z" fill="#FCC846"/>
<path d="M434.422 258.346C429.962 267.842 421.129 278.514 415.674 284.655C408.183 284.525 399.87 282.957 393.245 280.997C390.474 274.289 389.218 263.05 391.816 244.538C393.764 230.425 408.096 173.668 408.096 173.668C419.657 172.144 426.845 178.503 431.261 188.217C431.824 200.108 430.742 215.092 430.742 228.77C430.742 240.095 432.863 250.07 434.422 258.346Z" fill="#E6AF27"/>
<path d="M434.855 304.083H421.346C415.241 298.725 409.006 296.242 402.814 296.721C395.496 297.288 390.3 301.818 388.135 304.083H374.799C372.591 304.083 370.773 305.912 370.773 308.134V339.67C370.773 341.892 372.591 343.721 374.799 343.721H434.855C437.063 343.721 438.882 341.892 438.882 339.67V308.134C438.882 305.869 437.063 304.083 434.855 304.083ZM402.9 298.072C408.313 297.68 413.769 299.683 419.224 304.083H390.084C392.509 301.818 397.012 298.507 402.9 298.072Z" fill="#2B69C8"/>
<path d="M438.882 322.464V339.67C438.882 341.891 437.063 343.721 434.855 343.721H374.799C372.591 343.721 370.773 341.891 370.773 339.67V322.464H438.882Z" fill="#2A93EE"/>
<path d="M420.653 152.02C420.653 152.02 424.637 164.608 423.814 166.873C423.814 166.873 402.337 169.791 393.591 178.329C393.591 178.329 396.406 166.045 399.913 162.996C403.463 159.904 420.653 152.02 420.653 152.02Z" fill="#E6AF27"/>
<path d="M402.078 283.697C402.078 283.697 396.016 295.414 399.047 299.988C402.078 304.562 412.859 298.681 413.725 296.068C414.591 293.454 413.725 280.866 413.725 280.866L402.078 283.697Z" fill="#FFB27D"/>
<path d="M427.927 191.919C427.927 191.919 425.676 224.196 425.719 237.569C425.762 250.941 415.197 286.441 415.197 286.441C415.197 286.441 408.226 287.008 405.455 286.659C402.294 286.267 400.389 284.786 400.389 284.786C400.389 284.786 402.727 242.796 398.267 226.723C393.851 210.649 393.591 178.329 393.591 178.329C393.591 178.329 396.059 171.36 410.781 173.537C428.274 176.151 427.927 191.919 427.927 191.919Z" fill="#FCC846"/>
<path d="M410.781 141.609C410.781 141.609 408.097 155.94 399.697 159.86C397.705 156.637 396.319 153.631 395.367 151.497C394.631 149.929 402.554 144.876 407.014 141.696C409.266 141.653 410.781 141.609 410.781 141.609Z" fill="#E8945B"/>
<path d="M392.855 155.504C392.855 155.504 412.989 151.932 410.608 139.344C408.226 126.756 409.179 117.826 396.232 119.568C383.286 121.311 381.684 126.581 381.467 130.981C381.251 135.424 387.529 156.114 392.855 155.504Z" fill="#FFB27D"/>
<path d="M411.517 143.221C411.517 143.221 409.742 141.609 415.068 135.424C417.795 132.244 420.263 129.238 417.969 123.009C415.674 116.824 416.583 112.25 407.923 110.944C399.263 109.637 399.004 105.499 394.371 106.239C389.738 106.98 384.888 112.904 380.948 113.557C377.008 114.211 371.206 133.681 379.909 134.422C379.909 134.422 383.373 133.289 385.235 130.894C387.053 128.498 395.323 123.619 397.358 125.928C399.393 128.193 406.884 142.611 411.517 143.221Z" fill="#4A2009"/>
<path d="M403.117 318.849C403.117 317.934 403.853 317.15 404.806 317.15C405.758 317.15 406.494 317.891 406.494 318.849C406.494 319.764 405.758 320.548 404.806 320.548C403.853 320.548 403.117 319.764 403.117 318.849Z" fill="#2B69C8"/>
<path d="M461.96 55.8421H435.418V450.919H461.96V55.8421Z" fill="#2B69C8"/>
<path d="M109.197 55.8421H82.6547V450.919H109.197V55.8421Z" fill="#2B69C8"/>
<path d="M536.344 452.614H0.655932C0.298151 452.614 0 452.046 0 451.364V450.796C0 450.114 0.298151 449.546 0.655932 449.546H536.344C536.702 449.546 537 450.114 537 450.796V451.364C536.97 452.046 536.672 452.614 536.344 452.614Z" fill="#2E3552"/>
<path d="M280.407 37.9831H197.057C190.865 37.9831 185.842 32.8867 185.842 26.7014V11.2817C185.842 5.0528 190.908 0 197.057 0H280.451C286.642 0 291.665 5.09636 291.665 11.2817V26.7014C291.665 32.9303 286.599 37.9831 280.407 37.9831Z" fill="#F6FBFF"/>
<path d="M273.436 27.9646H259.234C257.849 27.9646 256.939 26.4401 257.589 25.1769L259.234 22.1278C259.234 22.0842 259.234 22.0407 259.234 22.0407L264.343 12.632C264.95 11.4124 266.682 11.3688 267.418 12.5449L274.605 24.3928L275.038 25.0462C275.818 26.353 274.908 27.9646 273.436 27.9646Z" fill="#E33115"/>
<path d="M274.605 24.3928H261.053C259.84 24.3928 258.974 23.2167 259.234 22.1713C259.234 22.1278 259.234 22.0842 259.234 22.0842L264.344 12.6755C264.95 11.4559 266.682 11.4123 267.418 12.5884L274.605 24.3928Z" fill="#DC3546"/>
<path d="M237.801 22.6069C237.801 24.2621 237.238 25.5689 236.069 26.5707C234.987 27.529 233.601 28.0082 231.912 28.0082C230.613 28.0082 229.531 27.7033 228.578 27.0934C227.106 26.0916 226.413 24.9155 226.413 23.5216C226.413 23.1296 226.543 22.7811 226.803 22.4762C227.063 22.1713 227.366 22.0406 227.756 22.0406C228.145 22.0406 228.535 22.302 228.925 22.8683C229.488 23.783 229.834 24.3057 229.964 24.3928C230.484 24.9591 231.176 25.2204 231.999 25.2204C233.125 25.2204 233.904 24.8284 234.38 24.0008C234.597 23.6088 234.727 23.0425 234.727 22.4327C234.727 20.8646 233.818 19.9934 231.999 19.8192C230.96 19.732 230.44 19.2965 230.44 18.5124C230.44 17.9461 230.743 17.5541 231.35 17.2928C232.475 16.9007 233.038 16.6829 233.038 16.6394C233.644 16.2474 233.947 15.5504 233.947 14.5486C233.947 13.9823 233.774 13.5032 233.428 13.1547C233.082 12.8062 232.605 12.632 232.042 12.632C231.306 12.632 230.743 12.8062 230.354 13.1547C230.007 13.4596 229.704 13.9823 229.488 14.7228C229.315 15.2891 228.925 15.5504 228.405 15.5504C228.016 15.5504 227.712 15.3762 227.453 15.0713C227.193 14.7228 227.106 14.3743 227.106 13.9823C227.106 13.5032 227.236 12.9805 227.496 12.5013C227.929 11.6737 228.622 11.0203 229.531 10.5847C230.354 10.1491 231.263 9.93135 232.259 9.93135C233.601 9.93135 234.727 10.3234 235.593 11.151C236.502 11.9786 236.935 13.0676 236.935 14.3743C236.935 15.986 236.286 17.2492 234.943 18.2075C236.849 18.9915 237.801 20.4725 237.801 22.6069Z" fill="#0065FF"/>
<path d="M217.104 25.1339V12.8503H215.502C214.506 12.8503 214.03 12.4583 214.03 11.6307C214.03 11.0209 214.42 10.6288 215.199 10.3675C215.589 10.2368 216.195 10.1497 217.061 10.0626C217.927 9.97546 218.62 9.97546 219.139 9.97546C219.659 9.97546 219.962 10.0626 220.092 10.2804C220.222 10.4982 220.308 11.0209 220.308 11.8485V25.1339H221.954C223.036 25.1339 223.556 25.613 223.556 26.5277C223.556 27.5296 223.036 28.0087 221.954 28.0087H215.242C214.766 28.0087 214.376 27.8781 214.073 27.6167C213.77 27.3554 213.597 27.0069 213.597 26.5277C213.597 25.5695 214.16 25.0903 215.242 25.0903H217.104V25.1339Z" fill="#0065FF"/>
<path d="M471.026 46.0286H73.6457V56.7686H471.026V46.0286Z" fill="#2A93EE"/>
<path d="M82.6448 450.51L82.6448 46.3733H73.2489L73.2489 450.51H82.6448Z" fill="#2A93EE"/>
<path d="M471.407 450.536L471.407 46.3992H462.011L462.011 450.536H471.407Z" fill="#2A93EE"/>
</svg>
