<svg width="671" height="112" viewBox="0 0 671 112" fill="none" xmlns="http://www.w3.org/2000/svg">
<path d="M54.0375 24.7266H66.4662L80.5898 68.7485L94.7133 24.7266H107.142L85.6308 88H75.5487L54.0375 24.7266ZM46.476 24.7266H59.3393L61.7294 73.2246V88H46.476V24.7266ZM101.84 24.7266H114.747V88H99.4501V73.2246L101.84 24.7266ZM147.67 38.0244L132.243 88H115.859L139.109 24.7266H149.495L147.67 38.0244ZM160.446 88L144.976 38.0244L142.977 24.7266H153.493L176.873 88H160.446ZM159.838 64.4028V76.1797H127.376V64.4028H159.838ZM202.322 66.5322H186.59V54.7554H202.322C204.465 54.7554 206.204 54.3932 207.536 53.6689C208.869 52.9447 209.84 51.9451 210.448 50.6704C211.085 49.3667 211.404 47.9036 211.404 46.2812C211.404 44.543 211.085 42.9351 210.448 41.4575C209.84 39.98 208.869 38.7922 207.536 37.894C206.204 36.967 204.465 36.5034 202.322 36.5034H192.326V88H177.073V24.7266H202.322C207.392 24.7266 211.752 25.6536 215.402 27.5078C219.082 29.362 221.906 31.9115 223.876 35.1562C225.846 38.3721 226.831 42.0514 226.831 46.1943C226.831 50.2793 225.846 53.8428 223.876 56.8848C221.906 59.9268 219.082 62.3024 215.402 64.0117C211.752 65.6921 207.392 66.5322 202.322 66.5322ZM245.718 24.7266V88H230.508V24.7266H245.718ZM282.222 24.7266L259.494 62.9688H243.067L241.242 49.1929H251.628L263.796 24.7266H282.222ZM266.403 88L251.584 60.3179L262.666 50.1055L284.395 88H266.403ZM327.313 76.2666V88H293.59V76.2666H327.313ZM299.022 24.7266V88H283.769V24.7266H299.022ZM322.967 49.8447V61.187H293.59V49.8447H322.967ZM327.443 24.7266V36.5034H293.59V24.7266H327.443ZM360.627 24.7266V88H345.373V24.7266H360.627ZM379.661 24.7266V36.5034H326.774V24.7266H379.661Z" fill="#2F353E"/>
<path d="M439.727 24.7266V36.5034H407.048V24.7266H439.727ZM450.027 24.7266V88H434.773V24.7266H450.027ZM406.005 24.7266H421.171L419.52 56.8848C419.259 61.752 418.767 65.9528 418.042 69.4873C417.318 72.9928 416.347 75.9479 415.131 78.3525C413.914 80.7282 412.451 82.6258 410.742 84.0454C409.032 85.465 407.048 86.479 404.788 87.0874C402.557 87.6958 400.051 88 397.27 88H393.576V76.2666L395.227 76.0928C396.56 75.9479 397.733 75.5858 398.747 75.0063C399.761 74.3979 400.631 73.4998 401.355 72.312C402.108 71.1242 402.731 69.6032 403.223 67.749C403.716 65.8949 404.107 63.6496 404.397 61.0132C404.715 58.3478 404.933 55.2334 405.049 51.6699L406.005 24.7266ZM469.478 64.6636L492.206 24.7266H507.459V88H492.206V48.1064L469.478 88H454.225V24.7266H469.478V64.6636ZM537.08 30.1152H552.898C556.722 30.1152 560.242 30.7381 563.458 31.9839C566.674 33.2297 569.47 35.0114 571.845 37.3291C574.221 39.6468 576.061 42.4425 577.364 45.7163C578.668 48.9901 579.32 52.6694 579.32 56.7544C579.32 60.6945 578.668 64.258 577.364 67.4448C576.061 70.6317 574.221 73.355 571.845 75.6147C569.47 77.8745 566.674 79.6128 563.458 80.8296C560.242 82.0174 556.722 82.6113 552.898 82.6113H537.08C533.227 82.6113 529.678 82.0174 526.433 80.8296C523.188 79.6128 520.363 77.889 517.959 75.6582C515.583 73.3984 513.729 70.6896 512.396 67.5317C511.092 64.3449 510.441 60.7814 510.441 56.8413C510.441 52.7563 511.092 49.077 512.396 45.8032C513.729 42.5295 515.583 39.7192 517.959 37.3726C520.363 35.0259 523.188 33.2297 526.433 31.9839C529.678 30.7381 533.227 30.1152 537.08 30.1152ZM537.08 42.3701C534.762 42.3701 532.676 42.8916 530.822 43.9346C528.968 44.9775 527.505 46.571 526.433 48.7148C525.361 50.8298 524.825 53.5386 524.825 56.8413C524.825 59.13 525.144 61.1291 525.781 62.8384C526.418 64.5477 527.302 65.9528 528.432 67.0537C529.562 68.1546 530.865 68.9803 532.343 69.5308C533.821 70.0812 535.399 70.3564 537.08 70.3564H552.985C555.245 70.3564 557.273 69.8639 559.069 68.8789C560.865 67.8649 562.285 66.3439 563.328 64.3159C564.4 62.2879 564.936 59.7674 564.936 56.7544C564.936 54.2918 564.632 52.1624 564.023 50.3662C563.415 48.57 562.56 47.078 561.459 45.8901C560.387 44.7023 559.127 43.8187 557.678 43.2393C556.23 42.6598 554.665 42.3701 552.985 42.3701H537.08ZM552.29 22.1191V90.6074H537.645V22.1191H552.29ZM613.112 24.7266V88H597.859V24.7266H613.112ZM632.146 24.7266V36.5034H579.259V24.7266H632.146Z" fill="#808D9F"/>
<path d="M11 15C11 6.71573 17.7157 0 26 0H185.4C192.911 0 199 6.08893 199 13.6H28V98.4H199C199 105.911 192.911 112 185.4 112H26C17.7157 112 11 105.284 11 97V15Z" fill="#0065FF"/>
</svg>
